<svg xmlns="http://www.w3.org/2000/svg" version="1.1" xmlns:xlink="http://www.w3.org/1999/xlink" x="0" y="0" viewBox="0 0 682.667 682.667" style="enable-background:new 0 0 512 512" xml:space="preserve" class=""><g><defs><clipPath id="a" clipPathUnits="userSpaceOnUse"><path d="M0 512h512V0H0Z" fill="#000000" opacity="1" data-original="#000000"></path></clipPath></defs><g clip-path="url(#a)" transform="matrix(1.33333 0 0 -1.33333 0 682.667)"><path d="m0 0-232.359-61.892v-116.879c0-43.374 35.16-78.534 78.533-78.534h307.652c43.373 0 78.533 35.16 78.533 78.534v116.879z" style="fill-opacity:1;fill-rule:nonzero;stroke:none" transform="translate(256 264.805)" fill="#50e2ce" data-original="#50e2ce"></path><path d="M0 0v-116.88c0-43.373 35.161-78.533 78.533-78.533h30C65.161-195.413 30-160.253 30-116.88V0Z" style="fill-opacity:1;fill-rule:nonzero;stroke:none" transform="translate(23.64 202.913)" fill="#00ae8e" data-original="#00ae8e"></path><path d="M0 0a46.498 46.498 0 0 1-40.401 23.478h-269.602A46.498 46.498 0 0 1-350.404 0l-57.158-100.306H57.157Z" style="fill-opacity:1;fill-rule:nonzero;stroke:none" transform="translate(431.202 303.219)" fill="#f8ea69" data-original="#f8ea69"></path><path d="M0 0h-30a46.5 46.5 0 0 1-40.401-23.478l-57.157-100.305h30l57.157 100.305A46.5 46.5 0 0 0 0 0" style="fill-opacity:1;fill-rule:nonzero;stroke:none" transform="translate(151.199 326.696)" fill="#f8ad3e" data-original="#f8ad3e"></path><path d="m0 0 77.84-76.744c10.251-10.106 26.718-10.106 36.968 0L192.648 0c10.185 10.041 3.075 27.38-11.227 27.38h-32.895v113.969c0 10.734-8.701 19.435-19.435 19.435H63.558c-10.734 0-19.436-8.701-19.436-19.435V27.38H11.228C-3.075 27.38-10.185 10.041 0 0" style="fill-opacity:1;fill-rule:nonzero;stroke:none" transform="translate(159.676 343.716)" fill="#ff89ca" data-original="#ff89ca"></path><path d="M0 0v-22.762" style="stroke-width:15;stroke-linecap:round;stroke-linejoin:round;stroke-miterlimit:10;stroke-dasharray:none;stroke-opacity:1" transform="translate(137.544 124.147)" fill="none" stroke="#000000" stroke-width="15" stroke-linecap="round" stroke-linejoin="round" stroke-miterlimit="10" stroke-dasharray="none" stroke-opacity="" data-original="#000000" class=""></path><path d="M0 0v-22.762" style="stroke-width:15;stroke-linecap:round;stroke-linejoin:round;stroke-miterlimit:10;stroke-dasharray:none;stroke-opacity:1" transform="translate(374.456 124.147)" fill="none" stroke="#000000" stroke-width="15" stroke-linecap="round" stroke-linejoin="round" stroke-miterlimit="10" stroke-dasharray="none" stroke-opacity="" data-original="#000000" class=""></path><path d="M0 0c7.593-8.713 18.764-14.228 31.23-14.228 12.466 0 23.637 5.515 31.23 14.228" style="stroke-width:15;stroke-linecap:round;stroke-linejoin:round;stroke-miterlimit:10;stroke-dasharray:none;stroke-opacity:1" transform="translate(224.77 102.063)" fill="none" stroke="#000000" stroke-width="15" stroke-linecap="round" stroke-linejoin="round" stroke-miterlimit="10" stroke-dasharray="none" stroke-opacity="" data-original="#000000" class=""></path><path d="M0 0v33.456C0 44.19-8.702 52.892-19.436 52.892h-65.533c-10.734 0-19.435-8.702-19.435-19.436V-80.513h-32.895c-14.302 0-21.412-17.339-11.227-27.38l77.84-76.743c10.25-10.106 26.717-10.106 36.968 0l77.84 76.743c10.185 10.041 3.075 27.38-11.227 27.38H0V-30" style="stroke-width:15;stroke-linecap:round;stroke-linejoin:round;stroke-miterlimit:10;stroke-dasharray:none;stroke-opacity:1" transform="translate(308.202 451.608)" fill="none" stroke="#000000" stroke-width="15" stroke-linecap="round" stroke-linejoin="round" stroke-miterlimit="10" stroke-dasharray="none" stroke-opacity="" data-original="#000000" class=""></path><path d="M0 0v-31.155c0-43.373 35.161-78.533 78.533-78.533h307.653c43.372 0 78.533 35.16 78.533 78.533v116.88H0V30" style="stroke-width:15;stroke-linecap:round;stroke-linejoin:round;stroke-miterlimit:10;stroke-dasharray:none;stroke-opacity:1" transform="translate(23.64 117.189)" fill="none" stroke="#000000" stroke-width="15" stroke-linecap="round" stroke-linejoin="round" stroke-miterlimit="10" stroke-dasharray="none" stroke-opacity="" data-original="#000000" class=""></path><path d="M0 0a46.498 46.498 0 0 1-40.401 23.478H-96.14l-60.578-59.724c-10.251-10.107-26.718-10.107-36.968 0l-60.578 59.724h-55.739A46.498 46.498 0 0 1-350.404 0l-57.158-100.306H57.157Z" style="stroke-width:15;stroke-linecap:round;stroke-linejoin:round;stroke-miterlimit:10;stroke-dasharray:none;stroke-opacity:1" transform="translate(431.202 303.219)" fill="none" stroke="#000000" stroke-width="15" stroke-linecap="round" stroke-linejoin="round" stroke-miterlimit="10" stroke-dasharray="none" stroke-opacity="" data-original="#000000" class=""></path></g></g></svg>